<svg xmlns="http://www.w3.org/2000/svg" viewBox="0 0 120 140" width="240" height="280">
  <circle cx="30" cy="38" r="10" fill="#c07a2c"/>
  <circle cx="90" cy="38" r="10" fill="#c07a2c"/>
  <circle cx="30" cy="38" r="5" fill="#fff" opacity="0.2"/>
  <circle cx="90" cy="38" r="5" fill="#fff" opacity="0.2"/>
  <circle cx="60" cy="55" r="30" fill="#c07a2c"/>
  <ellipse cx="60" cy="68" rx="16" ry="11" fill="#fff" opacity="0.2"/>
  <circle cx="60" cy="63" r="3" fill="#fff"/>
  <circle cx="48" cy="52" r="2.8" fill="#fff"/>
  <circle cx="72" cy="52" r="2.8" fill="#fff"/>
  <path d="M54 75 Q 60 79 66 75" stroke="#fff" stroke-width="2.2" fill="none" stroke-linecap="round"/>
  <ellipse cx="60" cy="108" rx="32" ry="22" fill="#c07a2c"/>
  <ellipse cx="60" cy="115" rx="16" ry="10" fill="#fff" opacity="0.18"/>
  <rect x="43" y="98" width="14" height="18" rx="2" fill="#fff" opacity="0.9"/>
  <line x1="46" y1="103" x2="54" y2="103" stroke="#c07a2c" stroke-width="1"/>
  <line x1="46" y1="107" x2="54" y2="107" stroke="#c07a2c" stroke-width="1"/>
  <line x1="46" y1="111" x2="52" y2="111" stroke="#c07a2c" stroke-width="1"/>
  <ellipse cx="60" cy="134" rx="34" ry="3" fill="#000" opacity="0.07"/>
</svg>
