<svg xmlns="http://www.w3.org/2000/svg" viewBox="0 0 120 140" width="240" height="280">
  <path d="M28 32 L 36 48 L 44 36 Z" fill="#7b9a8d"/>
  <path d="M92 32 L 84 48 L 76 36 Z" fill="#7b9a8d"/>
  <ellipse cx="60" cy="64" rx="38" ry="44" fill="#7b9a8d"/>
  <ellipse cx="60" cy="84" rx="22" ry="16" fill="#fff" opacity="0.18"/>
  <circle cx="46" cy="56" r="12" fill="#fff"/>
  <circle cx="74" cy="56" r="12" fill="#fff"/>
  <circle cx="46" cy="56" r="5" fill="#7b9a8d"/>
  <circle cx="74" cy="56" r="5" fill="#7b9a8d"/>
  <circle cx="47" cy="54" r="1.8" fill="#fff"/>
  <circle cx="75" cy="54" r="1.8" fill="#fff"/>
  <line x1="34" y1="56" x2="58" y2="56" stroke="#7b9a8d" stroke-width="1.5"/>
  <line x1="86" y1="56" x2="62" y2="56" stroke="#7b9a8d" stroke-width="1.5"/>
  <path d="M55 70 L 60 80 L 65 70 Z" fill="#fff"/>
  <path d="M98 32 Q 104 22 106 36" fill="#7b9a8d" stroke="#fff" stroke-width="0.5"/>
  <ellipse cx="60" cy="128" rx="32" ry="3" fill="#000" opacity="0.07"/>
</svg>
